<svg xmlns="http://www.w3.org/2000/svg" xmlns:xlink="http://www.w3.org/1999/xlink" width="500" zoomAndPan="magnify" viewBox="0 0 375 374.999991" height="500" preserveAspectRatio="xMidYMid meet" version="1.0"><defs><g/><clipPath id="e1a25ebcf8"><path d="M 0 175.144531 L 375 175.144531 L 375 199.855469 L 0 199.855469 Z M 0 175.144531 " clip-rule="nonzero"/></clipPath></defs><rect x="-37.5" width="450" fill="#ffffff" y="-37.499999" height="449.999989" fill-opacity="1"/><rect x="-37.5" width="450" fill="#ffffff" y="-37.499999" height="449.999989" fill-opacity="1"/><g fill="#0cc0df" fill-opacity="1"><g transform="translate(79.816406, 225.107827)"><g><path d="M 54.125 -68.859375 C 50.382812 -70.328125 46.457031 -71.0625 42.34375 -71.0625 C 34.0625 -71.0625 27.367188 -68.015625 22.265625 -61.921875 C 17.171875 -55.835938 14.625 -46.925781 14.625 -35.1875 C 14.625 -23.457031 17.300781 -15.25 22.65625 -10.5625 C 26.320312 -7.257812 31.421875 -5.609375 37.953125 -5.609375 C 42.128906 -5.609375 46.328125 -6.082031 50.546875 -7.03125 C 54.765625 -7.988281 57.644531 -8.910156 59.1875 -9.796875 L 60.71875 -4.40625 C 57.488281 -2.269531 51.84375 -0.800781 43.78125 0 C 41.4375 0.289062 38.960938 0.4375 36.359375 0.4375 C 33.753906 0.4375 30.691406 0.015625 27.171875 -0.828125 C 23.648438 -1.671875 20.382812 -3.375 17.375 -5.9375 C 10.5625 -11.726562 7.15625 -21.367188 7.15625 -34.859375 C 7.15625 -48.359375 10.363281 -58.789062 16.78125 -66.15625 C 23.195312 -73.53125 31.535156 -77.21875 41.796875 -77.21875 C 47.515625 -77.21875 52.429688 -76.082031 56.546875 -73.8125 C 58.078125 -73 59.285156 -72.117188 60.171875 -71.171875 L 60.171875 -55.21875 L 54.671875 -54.890625 Z M 54.125 -68.859375 "/></g></g></g><g fill="#0cc0df" fill-opacity="1"><g transform="translate(144.931784, 225.107827)"><g><path d="M 51.375 -56.3125 C 51.375 -45.757812 47.742188 -38.6875 40.484375 -35.09375 L 57.09375 0 L 49.0625 0 L 33.4375 -32.78125 C 30.800781 -32.34375 27.90625 -32.125 24.75 -32.125 L 16.28125 -32.125 L 16.28125 0 L 8.796875 0 L 8.796875 -77 L 24.75 -77 C 33.695312 -77 40.222656 -75.601562 44.328125 -72.8125 C 49.023438 -69.664062 51.375 -64.164062 51.375 -56.3125 Z M 16.28125 -70.953125 L 16.28125 -38.171875 L 24.203125 -38.171875 C 30.722656 -38.171875 35.632812 -39.488281 38.9375 -42.125 C 42.238281 -44.769531 43.890625 -49.351562 43.890625 -55.875 C 43.890625 -64.238281 40.078125 -69.082031 32.453125 -70.40625 C 30.023438 -70.769531 27.273438 -70.953125 24.203125 -70.953125 Z M 16.28125 -70.953125 "/></g></g></g><g fill="#0cc0df" fill-opacity="1"><g transform="translate(206.967387, 225.107827)"><g><path d="M 7.921875 0 L 7.921875 -77 L 15.40625 -77 L 43.671875 -20.6875 L 71.9375 -77 L 79.421875 -77 L 79.421875 0 L 72.484375 0 L 72.484375 -64.234375 L 47.40625 -14.40625 L 39.9375 -14.40625 L 14.84375 -64.234375 L 14.84375 0 Z M 7.921875 0 "/></g></g></g><g clip-path="url(#e1a25ebcf8)"><path fill="#ffffff" d="M 0 175.144531 L 375.011719 175.144531 L 375.011719 199.855469 L 0 199.855469 Z M 0 175.144531 " fill-opacity="1" fill-rule="nonzero"/></g><g fill="#0097b2" fill-opacity="1"><g transform="translate(91.892195, 191.27555)"><g><path d="M 3.3125 -4.3125 L 5.5 -7.84375 L 6.8125 -7.84375 L 3.875 -3.140625 L 3.875 0 L 2.75 0 L 2.75 -3.140625 L -0.171875 -7.84375 L 1.140625 -7.84375 Z M 3.3125 -4.3125 "/></g></g></g><g fill="#0097b2" fill-opacity="1"><g transform="translate(107.320529, 191.27555)"><g><path d="M 0.390625 -3.84375 C 0.390625 -4.40625 0.488281 -4.925781 0.6875 -5.40625 C 0.894531 -5.894531 1.179688 -6.320312 1.546875 -6.6875 C 1.910156 -7.050781 2.332031 -7.335938 2.8125 -7.546875 C 3.300781 -7.753906 3.820312 -7.859375 4.375 -7.859375 C 4.9375 -7.859375 5.457031 -7.753906 5.9375 -7.546875 C 6.425781 -7.335938 6.851562 -7.050781 7.21875 -6.6875 C 7.582031 -6.320312 7.863281 -5.894531 8.0625 -5.40625 C 8.269531 -4.925781 8.375 -4.40625 8.375 -3.84375 C 8.375 -3.289062 8.269531 -2.773438 8.0625 -2.296875 C 7.863281 -1.816406 7.582031 -1.390625 7.21875 -1.015625 C 6.851562 -0.648438 6.425781 -0.363281 5.9375 -0.15625 C 5.457031 0.0390625 4.9375 0.140625 4.375 0.140625 C 3.820312 0.140625 3.300781 0.0390625 2.8125 -0.15625 C 2.332031 -0.363281 1.910156 -0.648438 1.546875 -1.015625 C 1.179688 -1.390625 0.894531 -1.816406 0.6875 -2.296875 C 0.488281 -2.773438 0.390625 -3.289062 0.390625 -3.84375 Z M 1.53125 -3.84375 C 1.53125 -3.320312 1.65625 -2.84375 1.90625 -2.40625 C 2.164062 -1.976562 2.507812 -1.632812 2.9375 -1.375 C 3.375 -1.125 3.851562 -1 4.375 -1 C 4.90625 -1 5.382812 -1.125 5.8125 -1.375 C 6.25 -1.632812 6.59375 -1.976562 6.84375 -2.40625 C 7.101562 -2.84375 7.234375 -3.320312 7.234375 -3.84375 C 7.234375 -4.375 7.101562 -4.851562 6.84375 -5.28125 C 6.59375 -5.71875 6.25 -6.0625 5.8125 -6.3125 C 5.382812 -6.570312 4.90625 -6.703125 4.375 -6.703125 C 3.851562 -6.703125 3.375 -6.570312 2.9375 -6.3125 C 2.507812 -6.0625 2.164062 -5.71875 1.90625 -5.28125 C 1.65625 -4.851562 1.53125 -4.375 1.53125 -3.84375 Z M 1.53125 -3.84375 "/></g></g></g><g fill="#0097b2" fill-opacity="1"><g transform="translate(124.958305, 191.27555)"><g><path d="M 3.703125 0.078125 C 3.359375 0.078125 3.015625 0.0234375 2.671875 -0.078125 C 2.335938 -0.179688 2.035156 -0.332031 1.765625 -0.53125 C 1.492188 -0.726562 1.269531 -0.972656 1.09375 -1.265625 C 0.925781 -1.566406 0.84375 -1.914062 0.84375 -2.3125 L 0.84375 -7.78125 L 1.96875 -7.78125 L 1.96875 -2.296875 C 1.96875 -2.015625 2.054688 -1.78125 2.234375 -1.59375 C 2.410156 -1.40625 2.628906 -1.265625 2.890625 -1.171875 C 3.148438 -1.078125 3.421875 -1.03125 3.703125 -1.03125 C 3.972656 -1.03125 4.238281 -1.078125 4.5 -1.171875 C 4.757812 -1.265625 4.972656 -1.40625 5.140625 -1.59375 C 5.316406 -1.789062 5.40625 -2.03125 5.40625 -2.3125 L 5.40625 -7.78125 L 6.53125 -7.78125 L 6.53125 -2.296875 C 6.53125 -1.910156 6.445312 -1.566406 6.28125 -1.265625 C 6.113281 -0.972656 5.890625 -0.726562 5.609375 -0.53125 C 5.328125 -0.332031 5.019531 -0.179688 4.6875 -0.078125 C 4.351562 0.0234375 4.023438 0.078125 3.703125 0.078125 Z M 3.703125 0.078125 "/></g></g></g><g fill="#0097b2" fill-opacity="1"><g transform="translate(141.13411, 191.27555)"><g><path d="M 2.390625 -6.71875 L 0.0625 -6.71875 L 0.0625 -7.78125 L 5.828125 -7.78125 L 5.828125 -6.71875 L 3.515625 -6.71875 L 3.515625 0 L 2.390625 0 Z M 2.390625 -6.71875 "/></g></g></g><g fill="#0097b2" fill-opacity="1"><g transform="translate(155.836957, 191.27555)"><g><path d="M 5.3125 -4.640625 L 5.3125 -7.765625 L 6.4375 -7.765625 L 6.4375 0 L 5.3125 0 L 5.3125 -3.546875 L 2.0625 -3.546875 L 2.0625 0 L 0.953125 0 L 0.953125 -7.765625 L 2.0625 -7.765625 L 2.0625 -4.640625 Z M 5.3125 -4.640625 "/></g></g></g><g fill="#0097b2" fill-opacity="1"><g transform="translate(172.012762, 191.27555)"><g/></g></g><g fill="#0097b2" fill-opacity="1"><g transform="translate(183.549842, 191.27555)"><g><path d="M 0.953125 0 L 0.953125 -7.765625 L 5.53125 -7.765625 L 5.53125 -6.6875 L 2.0625 -6.6875 L 2.0625 -4.40625 L 5.140625 -4.40625 L 5.140625 -3.375 L 2.0625 -3.375 L 2.0625 0 Z M 0.953125 0 "/></g></g></g><g fill="#0097b2" fill-opacity="1"><g transform="translate(198.120779, 191.27555)"><g><path d="M 0.390625 -3.84375 C 0.390625 -4.40625 0.488281 -4.925781 0.6875 -5.40625 C 0.894531 -5.894531 1.179688 -6.320312 1.546875 -6.6875 C 1.910156 -7.050781 2.332031 -7.335938 2.8125 -7.546875 C 3.300781 -7.753906 3.820312 -7.859375 4.375 -7.859375 C 4.9375 -7.859375 5.457031 -7.753906 5.9375 -7.546875 C 6.425781 -7.335938 6.851562 -7.050781 7.21875 -6.6875 C 7.582031 -6.320312 7.863281 -5.894531 8.0625 -5.40625 C 8.269531 -4.925781 8.375 -4.40625 8.375 -3.84375 C 8.375 -3.289062 8.269531 -2.773438 8.0625 -2.296875 C 7.863281 -1.816406 7.582031 -1.390625 7.21875 -1.015625 C 6.851562 -0.648438 6.425781 -0.363281 5.9375 -0.15625 C 5.457031 0.0390625 4.9375 0.140625 4.375 0.140625 C 3.820312 0.140625 3.300781 0.0390625 2.8125 -0.15625 C 2.332031 -0.363281 1.910156 -0.648438 1.546875 -1.015625 C 1.179688 -1.390625 0.894531 -1.816406 0.6875 -2.296875 C 0.488281 -2.773438 0.390625 -3.289062 0.390625 -3.84375 Z M 1.53125 -3.84375 C 1.53125 -3.320312 1.65625 -2.84375 1.90625 -2.40625 C 2.164062 -1.976562 2.507812 -1.632812 2.9375 -1.375 C 3.375 -1.125 3.851562 -1 4.375 -1 C 4.90625 -1 5.382812 -1.125 5.8125 -1.375 C 6.25 -1.632812 6.59375 -1.976562 6.84375 -2.40625 C 7.101562 -2.84375 7.234375 -3.320312 7.234375 -3.84375 C 7.234375 -4.375 7.101562 -4.851562 6.84375 -5.28125 C 6.59375 -5.71875 6.25 -6.0625 5.8125 -6.3125 C 5.382812 -6.570312 4.90625 -6.703125 4.375 -6.703125 C 3.851562 -6.703125 3.375 -6.570312 2.9375 -6.3125 C 2.507812 -6.0625 2.164062 -5.71875 1.90625 -5.28125 C 1.65625 -4.851562 1.53125 -4.375 1.53125 -3.84375 Z M 1.53125 -3.84375 "/></g></g></g><g fill="#0097b2" fill-opacity="1"><g transform="translate(215.758549, 191.27555)"><g><path d="M 3.75 -3.90625 C 4.0625 -3.90625 4.320312 -3.96875 4.53125 -4.09375 C 4.738281 -4.226562 4.890625 -4.398438 4.984375 -4.609375 C 5.085938 -4.816406 5.140625 -5.03125 5.140625 -5.25 C 5.140625 -5.46875 5.085938 -5.6875 4.984375 -5.90625 C 4.890625 -6.125 4.738281 -6.304688 4.53125 -6.453125 C 4.320312 -6.597656 4.0625 -6.671875 3.75 -6.671875 L 2.046875 -6.671875 L 2.046875 0 L 0.953125 0 L 0.953125 -7.796875 L 3.75 -7.796875 C 4.164062 -7.796875 4.53125 -7.71875 4.84375 -7.5625 C 5.164062 -7.414062 5.429688 -7.21875 5.640625 -6.96875 C 5.847656 -6.726562 6.003906 -6.457031 6.109375 -6.15625 C 6.210938 -5.851562 6.265625 -5.550781 6.265625 -5.25 C 6.265625 -4.882812 6.1875 -4.535156 6.03125 -4.203125 C 5.882812 -3.867188 5.660156 -3.585938 5.359375 -3.359375 C 5.066406 -3.128906 4.703125 -2.972656 4.265625 -2.890625 L 6.703125 0 L 5.265625 0 L 2.453125 -3.375 L 2.453125 -3.90625 Z M 3.75 -3.90625 "/></g></g></g><g fill="#0097b2" fill-opacity="1"><g transform="translate(231.109928, 191.27555)"><g/></g></g><g fill="#0097b2" fill-opacity="1"><g transform="translate(242.647014, 191.27555)"><g><path d="M 3.3125 -4.3125 L 5.5 -7.84375 L 6.8125 -7.84375 L 3.875 -3.140625 L 3.875 0 L 2.75 0 L 2.75 -3.140625 L -0.171875 -7.84375 L 1.140625 -7.84375 Z M 3.3125 -4.3125 "/></g></g></g><g fill="#0097b2" fill-opacity="1"><g transform="translate(258.075342, 191.27555)"><g><path d="M 0.390625 -3.84375 C 0.390625 -4.40625 0.488281 -4.925781 0.6875 -5.40625 C 0.894531 -5.894531 1.179688 -6.320312 1.546875 -6.6875 C 1.910156 -7.050781 2.332031 -7.335938 2.8125 -7.546875 C 3.300781 -7.753906 3.820312 -7.859375 4.375 -7.859375 C 4.9375 -7.859375 5.457031 -7.753906 5.9375 -7.546875 C 6.425781 -7.335938 6.851562 -7.050781 7.21875 -6.6875 C 7.582031 -6.320312 7.863281 -5.894531 8.0625 -5.40625 C 8.269531 -4.925781 8.375 -4.40625 8.375 -3.84375 C 8.375 -3.289062 8.269531 -2.773438 8.0625 -2.296875 C 7.863281 -1.816406 7.582031 -1.390625 7.21875 -1.015625 C 6.851562 -0.648438 6.425781 -0.363281 5.9375 -0.15625 C 5.457031 0.0390625 4.9375 0.140625 4.375 0.140625 C 3.820312 0.140625 3.300781 0.0390625 2.8125 -0.15625 C 2.332031 -0.363281 1.910156 -0.648438 1.546875 -1.015625 C 1.179688 -1.390625 0.894531 -1.816406 0.6875 -2.296875 C 0.488281 -2.773438 0.390625 -3.289062 0.390625 -3.84375 Z M 1.53125 -3.84375 C 1.53125 -3.320312 1.65625 -2.84375 1.90625 -2.40625 C 2.164062 -1.976562 2.507812 -1.632812 2.9375 -1.375 C 3.375 -1.125 3.851562 -1 4.375 -1 C 4.90625 -1 5.382812 -1.125 5.8125 -1.375 C 6.25 -1.632812 6.59375 -1.976562 6.84375 -2.40625 C 7.101562 -2.84375 7.234375 -3.320312 7.234375 -3.84375 C 7.234375 -4.375 7.101562 -4.851562 6.84375 -5.28125 C 6.59375 -5.71875 6.25 -6.0625 5.8125 -6.3125 C 5.382812 -6.570312 4.90625 -6.703125 4.375 -6.703125 C 3.851562 -6.703125 3.375 -6.570312 2.9375 -6.3125 C 2.507812 -6.0625 2.164062 -5.71875 1.90625 -5.28125 C 1.65625 -4.851562 1.53125 -4.375 1.53125 -3.84375 Z M 1.53125 -3.84375 "/></g></g></g><g fill="#0097b2" fill-opacity="1"><g transform="translate(275.713113, 191.27555)"><g><path d="M 3.703125 0.078125 C 3.359375 0.078125 3.015625 0.0234375 2.671875 -0.078125 C 2.335938 -0.179688 2.035156 -0.332031 1.765625 -0.53125 C 1.492188 -0.726562 1.269531 -0.972656 1.09375 -1.265625 C 0.925781 -1.566406 0.84375 -1.914062 0.84375 -2.3125 L 0.84375 -7.78125 L 1.96875 -7.78125 L 1.96875 -2.296875 C 1.96875 -2.015625 2.054688 -1.78125 2.234375 -1.59375 C 2.410156 -1.40625 2.628906 -1.265625 2.890625 -1.171875 C 3.148438 -1.078125 3.421875 -1.03125 3.703125 -1.03125 C 3.972656 -1.03125 4.238281 -1.078125 4.5 -1.171875 C 4.757812 -1.265625 4.972656 -1.40625 5.140625 -1.59375 C 5.316406 -1.789062 5.40625 -2.03125 5.40625 -2.3125 L 5.40625 -7.78125 L 6.53125 -7.78125 L 6.53125 -2.296875 C 6.53125 -1.910156 6.445312 -1.566406 6.28125 -1.265625 C 6.113281 -0.972656 5.890625 -0.726562 5.609375 -0.53125 C 5.328125 -0.332031 5.019531 -0.179688 4.6875 -0.078125 C 4.351562 0.0234375 4.023438 0.078125 3.703125 0.078125 Z M 3.703125 0.078125 "/></g></g></g></svg>